<svg 
 xmlns="http://www.w3.org/2000/svg"
 xmlns:xlink="http://www.w3.org/1999/xlink"
 width="160px" height="44px">
<defs>
<linearGradient id="PSgrad_0" x1="0%" x2="100%" y1="0%" y2="0%">
  <stop offset="0%" stop-color="rgb(33,150,243)" stop-opacity="1" />
  <stop offset="60%" stop-color="rgb(48,116,212)" stop-opacity="1" />
  <stop offset="100%" stop-color="rgb(63,81,181)" stop-opacity="1" />
</linearGradient>

</defs>
<path fill-rule="evenodd"  fill="rgb(119, 195, 31)"
 d="M22.000,-0.000 L138.000,-0.000 C150.150,-0.000 160.000,9.850 160.000,22.000 C160.000,34.150 150.150,44.000 138.000,44.000 L22.000,44.000 C9.850,44.000 -0.000,34.150 -0.000,22.000 C-0.000,9.850 9.850,-0.000 22.000,-0.000 Z"/>
<path fill="url(#PSgrad_0)"
 d="M22.000,-0.000 L138.000,-0.000 C150.150,-0.000 160.000,9.850 160.000,22.000 C160.000,34.150 150.150,44.000 138.000,44.000 L22.000,44.000 C9.850,44.000 -0.000,34.150 -0.000,22.000 C-0.000,9.850 9.850,-0.000 22.000,-0.000 Z"/>
</svg>