<svg 
 xmlns="http://www.w3.org/2000/svg"
 xmlns:xlink="http://www.w3.org/1999/xlink"
 width="451px" height="443px">
<defs>
<linearGradient id="PSgrad_0" x1="0%" x2="100%" y1="0%" y2="0%">
  <stop offset="0%" stop-color="rgb(18,216,250)" stop-opacity="1" />
  <stop offset="60%" stop-color="rgb(25,189,253)" stop-opacity="1" />
  <stop offset="100%" stop-color="rgb(31,162,255)" stop-opacity="1" />
</linearGradient>

</defs>
<path fill-rule="evenodd"  opacity="0.302" fill="rgb(255, 255, 255)"
 d="M451.000,2.999 C294.158,2.999 140.760,0.953 13.837,0.953 C4.831,31.736 -0.000,64.303 -0.000,97.999 C-0.000,288.537 154.462,442.999 345.000,442.999 C381.583,442.999 416.837,437.305 449.922,426.755 C449.922,269.356 451.000,134.999 451.000,2.999 Z"/>
<path fill="url(#PSgrad_0)"
 d="M451.000,2.999 C294.158,2.999 140.760,0.953 13.837,0.953 C4.831,31.736 -0.000,64.303 -0.000,97.999 C-0.000,288.537 154.462,442.999 345.000,442.999 C381.583,442.999 416.837,437.305 449.922,426.755 C449.922,269.356 451.000,134.999 451.000,2.999 Z"/>
</svg>