<svg 
 xmlns="http://www.w3.org/2000/svg"
 xmlns:xlink="http://www.w3.org/1999/xlink"
 width="1600px" height="700px">
<defs>
<linearGradient id="PSgrad_0" x1="0%" x2="100%" y1="0%" y2="0%">
  <stop offset="0%" stop-color="rgb(18,216,250)" stop-opacity="1" />
  <stop offset="60%" stop-color="rgb(25,189,253)" stop-opacity="1" />
  <stop offset="100%" stop-color="rgb(31,162,255)" stop-opacity="1" />
</linearGradient>

</defs>
<path fill-rule="evenodd"  fill="rgb(255, 255, 255)"
 d="M0.000,699.999 C0.000,699.999 400.000,599.998 800.000,599.998 C1200.000,599.998 1600.000,699.999 1600.000,699.999 L1600.000,-0.001 C1600.000,-0.001 1200.000,100.000 800.000,100.000 C400.000,100.000 0.000,-0.001 0.000,-0.001 L0.000,699.999 Z"/>
<path fill="url(#PSgrad_0)"
 d="M0.000,699.999 C0.000,699.999 400.000,599.998 800.000,599.998 C1200.000,599.998 1600.000,699.999 1600.000,699.999 L1600.000,-0.001 C1600.000,-0.001 1200.000,100.000 800.000,100.000 C400.000,100.000 0.000,-0.001 0.000,-0.001 L0.000,699.999 Z"/>
</svg>